<svg width="143" height="112" viewBox="0 0 143 112" fill="none" xmlns="http://www.w3.org/2000/svg">
<path d="M63.667 1H142M63.667 32.3333H102.834" stroke="#1D6AE6" stroke-width="2" stroke-linecap="round" stroke-linejoin="round"/>
<path d="M24.5 1H8.83333C4.5071 1 1 4.5071 1 8.83333V24.5C1 28.8262 4.5071 32.3333 8.83333 32.3333H24.5C28.8262 32.3333 32.3333 28.8262 32.3333 24.5V8.83333C32.3333 4.5071 28.8262 1 24.5 1Z" fill="#1D6AE6" stroke="#1D6AE6" stroke-width="2" stroke-linecap="round" stroke-linejoin="round"/>
<path d="M63.667 79.3335H142M63.667 110.667H102.834" stroke="#1D6AE6" stroke-width="2" stroke-linecap="round" stroke-linejoin="round"/>
<path d="M24.5 79.3335H8.83333C4.5071 79.3335 1 82.8406 1 87.1668V102.833C1 107.16 4.5071 110.667 8.83333 110.667H24.5C28.8262 110.667 32.3333 107.16 32.3333 102.833V87.1668C32.3333 82.8406 28.8262 79.3335 24.5 79.3335Z" fill="#1D6AE6" stroke="#1D6AE6" stroke-width="2" stroke-linecap="round" stroke-linejoin="round"/>
</svg>
