<svg width="141" height="155" viewBox="0 0 141 155" fill="none" xmlns="http://www.w3.org/2000/svg">
<path d="M79.0086 71.5967C80.9332 72.3535 82.8071 73.186 84.6304 74.0942C86.4537 75.0024 88.2263 76.0368 89.9483 77.1973C88.8341 78.4082 87.8211 79.6696 86.9095 80.9814C85.9978 82.2933 85.1622 83.7061 84.4025 85.2197C80.5027 82.6969 76.3497 80.7796 71.9434 79.4678C67.5372 78.1559 63.0043 77.5 58.3448 77.5C53.8879 77.5 49.583 78.0802 45.43 79.2407C41.2769 80.4012 37.4025 82.0158 33.8066 84.0845C30.2107 86.1532 26.944 88.6759 24.0065 91.6528C21.069 94.6297 18.5366 97.9093 16.4095 101.492C14.2823 105.074 12.6363 108.934 11.4714 113.071C10.3066 117.209 9.72414 121.497 9.72414 125.938H0C0 119.883 0.886315 114.055 2.65894 108.455C4.43157 102.854 6.98922 97.6823 10.3319 92.9395C13.6746 88.1966 17.625 83.9836 22.1832 80.3003C26.7414 76.617 31.9073 73.7158 37.681 71.5967C31.958 67.863 27.5011 63.1706 24.3103 57.5195C21.1196 51.8685 19.4989 45.612 19.4483 38.75C19.4483 33.4017 20.4612 28.3813 22.4871 23.689C24.5129 18.9966 27.2732 14.8844 30.7678 11.3525C34.2624 7.82064 38.3901 5.04557 43.1509 3.02734C47.9116 1.00911 52.9763 0 58.3448 0C63.7134 0 68.7527 1.00911 73.4628 3.02734C78.173 5.04557 82.3006 7.79541 85.8459 11.2769C89.3912 14.7583 92.1767 18.8704 94.2026 23.6133C96.2285 28.3561 97.2414 33.4017 97.2414 38.75C97.2414 42.0801 96.8362 45.3345 96.0259 48.5132C95.2155 51.6919 94 54.694 92.3793 57.5195C90.7586 60.3451 88.8594 62.9435 86.6816 65.3149C84.5038 67.6864 81.9461 69.7803 79.0086 71.5967ZM29.1724 38.75C29.1724 42.7865 29.9321 46.5454 31.4515 50.0269C32.9709 53.5083 35.0474 56.5861 37.681 59.2603C40.3147 61.9344 43.4041 64.0283 46.9494 65.542C50.4946 67.0557 54.2931 67.8125 58.3448 67.8125C62.3459 67.8125 66.1191 67.0557 69.6643 65.542C73.2096 64.0283 76.299 61.9596 78.9327 59.3359C81.5663 56.7122 83.6681 53.6344 85.2381 50.1025C86.8082 46.5706 87.5679 42.7865 87.5172 38.75C87.5172 34.764 86.7575 31.005 85.2381 27.4731C83.7188 23.9412 81.6422 20.8634 79.0086 18.2397C76.375 15.616 73.2602 13.5221 69.6643 11.958C66.0684 10.3939 62.2953 9.63704 58.3448 9.6875C54.2931 9.6875 50.5199 10.4443 47.0253 11.958C43.5307 13.4717 40.4413 15.5404 37.757 18.1641C35.0727 20.7878 32.9709 23.8908 31.4515 27.4731C29.9321 31.0555 29.1724 34.8145 29.1724 38.75ZM141 101.719C141 104.342 140.595 106.89 139.784 109.363C138.974 111.835 137.759 114.131 136.138 116.25V155L116.69 145.312L97.2414 155V116.25C95.6713 114.131 94.4811 111.835 93.6708 109.363C92.8605 106.89 92.43 104.342 92.3793 101.719C92.3793 98.3887 93.0124 95.2604 94.2786 92.334C95.5447 89.4076 97.2667 86.8595 99.4445 84.6899C101.622 82.5203 104.205 80.7796 107.193 79.4678C110.182 78.1559 113.347 77.5 116.69 77.5C120.032 77.5 123.172 78.1307 126.11 79.3921C129.047 80.6535 131.605 82.3942 133.783 84.6143C135.961 86.8343 137.708 89.4076 139.025 92.334C140.342 95.2604 141 98.3887 141 101.719ZM116.69 87.1875C114.664 87.1875 112.765 87.5659 110.992 88.3228C109.219 89.0796 107.675 90.1139 106.358 91.4258C105.041 92.7376 104.003 94.2765 103.243 96.0425C102.483 97.8084 102.103 99.7005 102.103 101.719C102.103 103.737 102.483 105.629 103.243 107.395C104.003 109.161 105.041 110.7 106.358 112.012C107.675 113.324 109.219 114.358 110.992 115.115C112.765 115.872 114.664 116.25 116.69 116.25C118.716 116.25 120.615 115.872 122.387 115.115C124.16 114.358 125.705 113.324 127.022 112.012C128.338 110.7 129.377 109.161 130.136 107.395C130.896 105.629 131.276 103.737 131.276 101.719C131.276 99.7005 130.896 97.8084 130.136 96.0425C129.377 94.2765 128.338 92.7376 127.022 91.4258C125.705 90.1139 124.16 89.0796 122.387 88.3228C120.615 87.5659 118.716 87.1875 116.69 87.1875ZM126.414 139.333V123.894C123.375 125.256 120.134 125.938 116.69 125.938C113.246 125.938 110.004 125.256 106.966 123.894V139.333C108.586 138.526 110.207 137.744 111.828 136.987C113.448 136.23 115.069 135.398 116.69 134.49C118.31 135.347 119.931 136.155 121.552 136.912C123.172 137.668 124.793 138.476 126.414 139.333Z" fill="#1D6AE6"/>
</svg>
