<svg width="28" height="28" viewBox="0 0 28 28" fill="none" xmlns="http://www.w3.org/2000/svg">
<rect width="28" height="28" rx="14" fill="white"/>
<path d="M12.552 12.384C12.552 13.0347 12.4027 13.632 12.104 14.176C11.8053 14.7093 11.3467 15.1413 10.728 15.472C10.1093 15.8027 9.34133 15.968 8.424 15.968H6.728V20H3.992V8.768H8.424C9.32 8.768 10.0773 8.92267 10.696 9.232C11.3147 9.54133 11.7787 9.968 12.088 10.512C12.3973 11.056 12.552 11.68 12.552 12.384ZM8.216 13.792C8.73867 13.792 9.128 13.6693 9.384 13.424C9.64 13.1787 9.768 12.832 9.768 12.384C9.768 11.936 9.64 11.5893 9.384 11.344C9.128 11.0987 8.73867 10.976 8.216 10.976H6.728V13.792H8.216Z" fill="#73A3F0"/>
<path d="M16.6644 8.768V15.488C16.6644 16.16 16.8297 16.6773 17.1604 17.04C17.491 17.4027 17.9764 17.584 18.6164 17.584C19.2564 17.584 19.747 17.4027 20.0884 17.04C20.4297 16.6773 20.6004 16.16 20.6004 15.488V8.768H23.3364V15.472C23.3364 16.4747 23.123 17.3227 22.6964 18.016C22.2697 18.7093 21.6937 19.232 20.9684 19.584C20.2537 19.936 19.4537 20.112 18.5684 20.112C17.683 20.112 16.8884 19.9413 16.1844 19.6C15.491 19.248 14.9417 18.7253 14.5364 18.032C14.131 17.328 13.9284 16.4747 13.9284 15.472V8.768H16.6644Z" fill="#0C2953"/>
</svg>
