<svg width="150" height="153" viewBox="0 0 150 153" fill="none" xmlns="http://www.w3.org/2000/svg">
<path d="M126 65L145.062 99.3125L126 103.125V126H114.562L91.6875 122.188L87.875 148.875H30.6875L23.0625 109.297C11.32 98.1802 4 82.446 4 65C4 31.3089 31.3089 4 65 4C98.6911 4 126 31.3089 126 65Z" stroke="#1D6AE6" stroke-width="8" stroke-linecap="round" stroke-linejoin="round"/>
<path d="M126 65L145.062 99.3125L126 103.125V126H114.562L91.6875 122.188L87.875 148.875H30.6875L23.0625 109.297C11.32 98.1802 4 82.446 4 65C4 31.3089 31.3089 4 65 4C98.6911 4 126 31.3089 126 65Z" stroke="black" stroke-opacity="0.2" stroke-width="8" stroke-linecap="round" stroke-linejoin="round"/>
<path d="M45.9375 57.375C45.9375 53.6048 47.0555 49.9193 49.1501 46.7845C51.2447 43.6496 54.2219 41.2064 57.7051 39.7636C61.1883 38.3208 65.0211 37.9433 68.7189 38.6788C72.4167 39.4143 75.8133 41.2298 78.4792 43.8958C81.1452 46.5617 82.9607 49.9583 83.6962 53.6561C84.4318 57.3539 84.0543 61.1867 82.6115 64.6699C81.1687 68.1531 78.7254 71.1303 75.5906 73.2249C72.4557 75.3195 68.7702 76.4375 65 76.4375V87.875M65 110.75V114.563" stroke="#1D6AE6" stroke-width="4" stroke-linecap="round" stroke-linejoin="round"/>
</svg>
